<?xml version="1.0" encoding="UTF-8"?>
<svg id="Layer_1" data-name="Layer 1" xmlns="http://www.w3.org/2000/svg" viewBox="0 0 70.85 37.19">
  <defs>
    <style>
      .cls-1 {
        fill: #fff;
      }
    </style>
  </defs>
  <path class="cls-1" d="M60.9,25.48c-.59.1-1.5-.41-1.7.66,1.29.38,2.45.9,3.66,1.02.02.41-.24.43-.65.28-3.35-.22-6.71-.37-9.69-1.94-4.09-2.16-4.69.67-8.28-1.26.07-.85.68-1.23.55-2-2.87-1.07-5.85-2.15-8.84-2.21-.91.04-5.05,3.34-5.39,1.96-.2-.83.34-1.54.18-2.53-5.83-.81-5.2,4.09-7.39,3.67-1.39-.26-1.65-1.71-2.3-1.75-.36-.02-.98-.03-1.38.29-2.56,2.01-3.46,3.1-2.29,5.98-1.12,1.67-.43,6.34-1.48,7.54-1.89-1.91-2.99-3.97-4.51-5.83-2.4-2.93-4.5-.39-4.66-3.23,2.13-3.78,6.39-2.51,8.13-5.83,1.03-1.97,2.65-3.54,3.81-5.4.58-.93.58-1.86,1.96-2.01,2.66-.3,3.32-1.95,9.14-3.04,1.38-.26,2.72-.73,4.14-.85,1.57-.13,2.3-2.21,3.35-2.72,2.57-.85,4.45,1.79,6.22,2.87,3.02,1.85,6.59,2.44,9.5,4.49,2.59,1.82,5.22,3.5,7.16,5.98l2.98,3.81c.55.71,1.26,1.61.89,2.39-1.34-.31-2.2-.5-3.13-.33h0Z"/>
</svg>
