<?xml version="1.0" encoding="UTF-8"?>
<svg id="Layer_1" data-name="Layer 1" xmlns="http://www.w3.org/2000/svg" viewBox="0 0 275 275">
  <defs>
    <style>
      path, rect, circle, ellipse, polygon, polyline, line {
        fill: #f2f0ef;
      }
    </style>
  </defs>
  <path d="M123.75,116.19l-1.24-1.24c.41.41-5.37,2.04-11.56-1.48-.81-.46-1.09-2.98-.61-3.83.94-1.68,5.12-4.17,7.02-2.88l1.74,1.18c.37.25.54-1.11.55-2.16l15.59-1.73c4.04-.45,5.3,2.76,5.5,1.38l.26-1.76c4.38-1.3,10.01-3.78,10.89-8.84-.53-1.75-1.32-4.3-1.24-5.95-2.97-1.06-6.8-3.14-9.11-4.93l.13-2.05c.02-.38-1.3-.16-1.92,0s-1.57-.88-1.71-1.61.91-1.71,1.44-2.42c-.14-.71-.66-2.13-.61-2.84.07-.92,1.47-1.92,2.28-2.5l8.14-5.74c1.92-1.36,4.48-2.47,6.84-1.29,3.55,1.78,7.4,2.59,11.03,4.17,4.24,1.85,6.93,6.92,11.34,8.58,3.77,1.42,6.99,3.04,10.33,5.28l11.35,7.63,8.09,4.59c5.71,3.24,10.58,7.27,16.68,10.03,13.36,6.92,27.52,10.82,42.75,11.46l-.03,26.28-25.19-.17-.41,14.38c1.27.6,3.23.7,4.79.38l.23-11.01,20.47.34.41,16.38-195.14.12-17.49.31-44.2-.33v-25.75s16.05-.15,16.05-.15c.51,0,1.06-1.38.84-1.83s-1.31-.97-1.9-.99l-14.96-.32c-.18-7.4.18-14.04-.35-21.18-.21-2.81-.19-4.63.93-7.11.96-2.12,1.15-3.6,3.81-4.02l14.86-2.35,11.83-2.93c6.49-1.61,12.12-3.18,17.87-6.58,6.82-4.04,14.04-6.85,21.62-9.03,2.63-.75,4.23-2.3,6.16-4.19,2.72-2.66,6.55-4.02,10.05-5.6,3.48-1.57,5.28-4.78,8.18-7.38,2.15-.94,6.8-.73,9.09.25l11.91,5.09c2.24.96,4.26,2.18,6.75,2.99,1,.32,2.44,2.46,1.54,2.96l-1.8,1.02s.55,5.38,2.27,6.82l-1.07,2.89,3.56-.45,5.86,3.11c-1.36.59-2.44,1.4-2.35,2.3l3.48.43c-.14,3.97-3.86,6.84-7.81,6.53l-2.82-2.27c-.45-.36-.76,1.45-.52,2.46l-17.66,1.92-2.86-2.48c-.4.18-1.24.99-1.06,1.3l.88,1.49c-4.95,2.36-9.95,3.52-10.48,9.83-.57,6.93,6.64,8.77,12.35,9.77l1.02,2.56c2.01-1.92,3.52-1.81,5.82-1.7l16.28.76c.38.87,1.08,2.18,1.78,2.49.5.23.97-1.52.99-2.39,7.59.23,15.77.78,23.5,1.51l2.27,2.78,1.22-2.47,12.47,2.61,1.18,2.53,1.61-1.22c.61-.46,8.92,2.38,11.72,9.68,1.77,4.63-5.11,4.61-1.44,7.97l2.18-2.59c2.79-1.64,5.62,1.63,6.25,3.55.15.47,1.75.48,1.73.07l-.09-1.91c-.12-2.49-.01-5.39-.95-7.64-3.82-9.13-13.22-11.87-13.26-12.94l-.1-2.26-4.3.52-14.82-3.36-1.37-1.06c-2.23.68-3.94.66-6.51.47l-17.22-1.26c-.65-.05-1.65-1.16-2.08-1.25-.53-.12-1.66.98-2.2.98-2.5.03-5.86.05-8.41-.13l-8.89-.6ZM52.56,114.4v23.62c-.01.62.37,2.28.95,2.22l2.45-.26.29-29.69-9.51.03.3,28.36c0,.73.95,1.72,1.53,1.71s1.56-1.1,1.56-1.85l.08-24.27c0-.82,2.33-.45,2.33.14ZM72.53,135.99l-.19-18.89-10.32-.03.16,18.66,10.35.26ZM41.97,131.64l-.27-9.41-8.71.17.27,9.58,8.7-.35ZM95.39,129.95l.21-6.4-8.24.08.17,6.4,7.86-.08ZM230.21,127.92l-.23-4.52-6.56-.05.18,6.85c3.29.3,6.52.04,9.41-1-.94-.4-2.64-.76-2.79-1.28ZM27.37,127.29c.54-.32.49-2.84.03-3l-11.28-.11c-.58,0-1.57.93-1.58,1.45s1.09,1.64,1.61,1.64l11.23.02ZM118.5,132.15v-4.64s-14.28-.02-14.28-.02c-.27,1.14-.38,2.89-.34,4.59l14.62.07ZM214.74,135.37c.95-.58.87-3.57.78-4.22l2.42-.51c.49-.1.19-2.4-.31-2.46l-4.57-.58c-.23.76-.5,2.46-.01,2.79l1.7,1.18-6.89,1c-.28.42-.25,2.74.37,3.14,1.47.6,4.83.68,6.51-.34ZM260.56,134.71l-3.9.14-.13-5.27-4.37.11-.16,9.02,5.18-.16,3.99-.14c.35-.69.25-3.74-.6-3.71ZM26.53,132.76c.83,0,1.79-1.48,1.5-2.09-.22-.46-1.35-.89-1.97-.89l-9.87-.05c-.66,0-1.77.98-1.73,1.53s1.18,1.44,1.72,1.44l10.35.06ZM247.11,138.73l.04-7.5-7.81-.02c-.24,2.48-.36,4.88-.09,7.23l7.86.29ZM83.5,135.96c.54-1.57.65-3.48.28-4.44l-7.87.09-.29,3.99,7.89.37ZM136.14,139.97c.92,0,3.41,1.43,3.56-.23.2-2.28.13-4.67,0-6.61l-14.44.24c-.21,2.16-.2,4.58.16,6.55l10.72.05ZM163.08,136.81l-.13-4.2-12.16.17.07,4.39,12.22-.35ZM231.98,135.66c.66.03,1.96-.92,1.89-1.5s-1.19-1.42-1.8-1.41l-8.21.1c-.5,0-1.44.51-1.78.77s.95,1.59,1.41,1.61l8.5.43ZM97.37,141.81l7.92-.08.56-6.41-8.76.21.28,6.28ZM112.31,138.25l5.77.03c.43,0,1.08-1.41.8-1.73-.21-.24-.98-.69-1.32-.68l-6.15.17c-.45.01-1.27,1.63-.89,1.89.3.2.83.32,1.79.33ZM179.25,140.7c.81,0,1.85-1.25,1.99-1.94.11-.57-.47-2.31-1.21-2.32l-10.28-.08c-1.09.4-1.04,3.99.05,4.37l9.44-.03ZM43.87,158.66l-.36-20.99c-1.09-.31-2.94-.31-3.8.02l.3,9.82.06,11.15c.53.61,3.69.97,3.8,0ZM232.12,140.8c.54,0,1.48-.45,1.77-.86s-.45-2.07-1.02-2.05l-9.62.33c-.41.31-.94,2.01-.52,2.28.31.21,1.15.43,1.56.42l7.84-.12ZM78.86,141.47c.03-2.63-1.71-2.66-3.52-2.23-2.23.53-1.5,5.9-.1,6.17.87.16,2.98-.03,3.25-.8.24-.66.36-2.09.37-3.14ZM85.91,146.42l9,.27v9.79c0,.89.4,2.33,1.07,2.58.58.21,2.45-.33,2.45-.94l-.08-12.49-3.91-.7-.55-4.1-10.35-.06-.72,8.36-9.98.28,1.46,9.05c9.79-1.07,5.08.97,11.33.97v-4.93c-.01-2.72.13-5.07.29-8.08ZM28.24,152.37l.02-10.38-5.09.07c-1.85.03-4.29-.62-6.02.37-1.12.64.29,2.47,1.65,3.07.37,1.38-2.6,5.55.26,7.18.73.42,2.4-.07,3.48-.5l5.68.19ZM155.06,146.44l.18-4.09-13.39-.29c-.48,1.68-.54,3.94-.12,5.84l3.26-1.2,10.07-.26ZM125.45,158.79l.15-16.4-9.06.1.21,16.3h8.69ZM220.2,144.22c-.89-2.18-4.92-1.67-6.15-.67-.44.36-.5,2.08.06,2.23,1.13.29,6.45,1.23,6.08-1.56ZM232.15,146.1c.65,0,1.6-.75,1.67-1.49.05-.59-1.16-1.33-1.78-1.33l-7.72.03c-.67,0-1.56,1.32-1.36,1.94.16.49,1.36.97,1.97.96l7.22-.1ZM56.76,158.88l11.32.07.05-14.53-20.48.28c-.2,1.33-.31,2.95-.37,4.72l9.46.12.02,9.34ZM200.26,150.9l-2.43-6c-3.09,2.63-6.98,13.12-1.23,13.34,2.56.1,4.07-.14,4.95-2.7.46-1.33-.52-2.72-1.3-4.64ZM171.75,150.93c.29-1.8.29-3.55-.14-4.41l-10.84.02c-1.43,0-2.23,3.79-1.05,4.12l12.03.26ZM144.07,158.81l.09-9.6-12.76.35.91,9.2,11.76.05ZM223.94,157.65l.02-7.75-4.59.05-.25,8.17,4.81-.46ZM231.56,157.84l-.18-7.71c-.49-.95-3.82-.63-3.86.54l-.21,7.34,4.25-.18ZM111.16,158.61l.17-6.62-7.25.41.36,6.31,6.71-.09ZM148.86,157.72l8.4.2c.55-1.29.52-3.56-.34-4.68l-8.94.24c-.55.95-.23,4.21.87,4.24Z"/>
</svg>
