<?xml version="1.0" encoding="UTF-8"?>
<svg xmlns="http://www.w3.org/2000/svg" version="1.1" viewBox="0 0 623.2576 408.8555" shape-rendering="geometricPrecision">
  <!-- Generator: Adobe Illustrator 29.5.0, SVG Export Plug-In . SVG Version: 2.1.0 Build 137)  -->
  <g id="Layer_1" shape-rendering="geometricPrecision">
    <path d="M475.5335,401.6829c1.6269-3.4619,3.4642-6.8753,4.9432-10.4129,8.698-20.8054,15.635-55.6792-16.5137-58.0586-8.2485-.6105-234.4766-.4029-242.9469-.5416-45.722-.7483-101.5099,3.765-145.4019-7.6758C11.6049,308.3096,6.4641,261.4652,4.6043,203.5797c-1.1848-36.8772-2.3332-75.4551,3.2809-112.0214C19.8656,13.5254,77.3661,8.8076,143.9367,5.5404c49.9043-2.4492,318.6847-3.1528,368.5132,1.5972,52.6342,5.0175,90.0732,21.2202,101.4382,76.972,7.2338,35.4863,5.9251,80.8414,5.0329,117.3681-1.1559,47.324-4.0431,96.5852-52.645,118.2026-7.8513,3.4922-16.0991,4.688-23.5114,7.7508-9.9005,4.0908-8.978,11.6484-12.7008,20.1784-10.2561,23.4993-31.0976,43.867-54.5302,54.0735h0Z" style="fill: none; stroke: #FFFFFF
    ; stroke-linejoin: miter; stroke-miterlimit: 30; stroke-width: 7.2576px;"/>
    <g style="isolation: isolate;">
      <text transform="translate(89.0461 118.263)" style="fill: #fff; font-family: akzidenz-grotesk-next-pro, -apple-system, BlinkMacSystemFont, 'Segoe UI', Roboto, Helvetica, Arial, sans-serif !important; font-weight: 500; font-size: 51.2298px; isolation: isolate;"><tspan x="0" y="0">Does saving salmon</tspan><tspan x="-41.3936" y="61.4756">mean changing the way</tspan><tspan x="60.9614" y="122.9512">we use water?</tspan></text>
    </g>
  </g>
</svg>