<?xml version="1.0" encoding="UTF-8"?>
<svg xmlns="http://www.w3.org/2000/svg" version="1.1" viewBox="0 0 513.2576 408.8555">
  <!-- Generator: Adobe Illustrator 29.5.0, SVG Export Plug-In . SVG Version: 2.1.0 Build 137)  -->
  <g id="Layer_1" shape-rendering="geometricPrecision">
    <path d="M147.724,401.683c-23.4326-10.2065-44.2741-30.5742-54.5302-54.0735-3.7228-8.53-2.8003-16.0876-12.7008-20.1784-7.4123-3.0628-15.6601-4.2586-23.5114-7.7508C8.3797,298.0629,5.4925,248.8017,4.3366,201.4777c-.8922-36.5267-2.2009-81.8818,5.0329-117.3681C20.7345,28.3578,58.1735,12.1551,110.8077,7.1376c49.8285-4.75,208.6089-4.0464,258.5132-1.5972,66.5706,3.2672,124.0711,7.985,136.0515,86.0179,5.6141,36.5663,4.4657,75.1442,3.2809,112.0214-1.8598,57.8855-7.0006,104.7299-71.0099,121.4143-43.892,11.4408-95.6799,6.9275-141.4019,7.6758-8.4703.1387-128.6984-.0689-136.9469.5416-32.1487,2.3794-25.2117,37.2532-16.5137,58.0586,1.479,3.5376,3.3163,6.951,4.9432,10.4129h0Z" style="fill: none; stroke: #fff; stroke-miterlimit: 10; stroke-width: 7.2576px;"/>
    <text transform="translate(97.0744 119.5914)" style="fill: #fff; font-family: AkzidGrtskNext-Med, &apos;Akzidenz-Grotesk Next&apos;; font-size: 51.2298px; isolation: isolate;"><tspan x="0" y="0">How is climate </tspan><tspan x="-35.9888" y="61.4756">change reshaping </tspan><tspan x="-45.3633" y="122.9512">California&apos;s water?</tspan></text>
  </g>
</svg>