<?xml version="1.0" encoding="UTF-8"?>
<svg id="Layer_1" xmlns="http://www.w3.org/2000/svg" version="1.1" viewBox="0 0 407.2576 408.8556" shape-rendering="geometricPrecision">
  <!-- Generator: Adobe Illustrator 29.5.0, SVG Export Plug-In . SVG Version: 2.1.0 Build 137)  -->
  <path d="M259.5335,401.6829c1.6269-3.4619,3.4642-6.8753,4.9432-10.4129,8.698-20.8054,15.635-55.6792-16.5137-58.0586-8.2485-.6105-18.4766-.4029-26.9469-.5416-45.722-.7483-101.5099,3.765-145.4019-7.6758C11.6049,308.3096,6.4641,261.4652,4.6043,203.5797c-1.1848-36.8772-2.3332-75.4551,3.2809-112.0214C19.8656,13.5254,77.3661,8.8076,143.9367,5.5404c49.9043-2.4492,102.6847-3.1528,152.5132,1.5972,52.6342,5.0175,90.0732,21.2202,101.4382,76.972,7.2338,35.4863,5.9251,80.8414,5.0329,117.3681-1.1559,47.324-4.0431,96.5852-52.645,118.2026-7.8513,3.4922-16.0991,4.688-23.5114,7.7508-9.9005,4.0908-8.978,11.6484-12.7008,20.1784-10.2561,23.4993-31.0976,43.867-54.5302,54.0735Z" style="fill: none; stroke: #fff; stroke-linejoin: miter; stroke-miterlimit: 10; stroke-width: 7.2576px;"/>
  <text transform="translate(72.0476 118.3113)" style="fill: #fff; font-family: akzidenz-grotesk-next-pro, -apple-system, BlinkMacSystemFont, 'Segoe UI', Roboto, Helvetica, Arial, sans-serif !important; font-weight: 500; font-size: 51.2298px;"><tspan x="0" y="0">Is California</tspan><tspan x="-15.9077" y="61.4756">ready for the </tspan><tspan x="-25.0269" y="122.9517">next drought?</tspan></text>
</svg>