<?xml version="1.0" encoding="UTF-8"?>
<svg xmlns="http://www.w3.org/2000/svg" version="1.1" viewBox="0 0 592.125 333.8555">
  <!-- Generator: Adobe Illustrator 29.5.0, SVG Export Plug-In . SVG Version: 2.1.0 Build 137)  -->
  <g id="Layer_1" shape-rendering="geometricPrecision">
    <path d="M444.4009,326.6829c1.6269-3.4619,3.4642-6.8753,4.9432-10.4129,8.698-20.8054,15.635-55.6792-16.5137-58.0586-8.2485-.6105-234.4766-.4029-242.9469-.5416-45.722-.7483-63.2404-1.4155-108.4019-.6758-36.5491-.3666-68.438-23.1677-74.0099-66.4143C-.0301,132.3537,5.346,87.9564,7.7526,75.5583,20.5378,9.6927,76.2335,8.8076,142.8041,5.5404c49.9043-2.4492,288.6847-3.1528,338.5132,1.5972,52.6342,5.0175,90.0732,21.2202,101.4382,76.972,7.2338,35.4863,5.9251,45.8414,5.0329,82.3681-1.1559,47.324-4.0431,56.5852-52.645,78.2026-7.8513,3.4922-16.0991,4.688-23.5114,7.7508-9.9005,4.0908-8.978,11.6484-12.7008,20.1784-10.2561,23.4993-31.0976,43.867-54.5302,54.0735h0Z" style="fill: none; stroke: #fff; stroke-miterlimit: 10; stroke-width: 7.2576px;"/>
    <g style="isolation: isolate;">
      <text transform="translate(55.8784 118.263)" style="fill: #fff; font-family: AkzidGrtskNext-Med, &apos;Akzidenz-Grotesk Next&apos;; font-size: 51.2298px; isolation: isolate;"><tspan x="0" y="0">Do some Californians</tspan><tspan x="-12.7554" y="61.4756">still lack water justice?</tspan></text>
    </g>
  </g>
</svg>