<?xml version="1.0" encoding="UTF-8"?>
<svg xmlns="http://www.w3.org/2000/svg" xmlns:xlink="http://www.w3.org/1999/xlink" version="1.1" viewBox="0 0 156.9 25.5">
  <defs>
    <style>
      .cls-1 {
        fill: none;
      }

      .cls-2 {
        fill: #135773;
      }

      .cls-3 {
        fill: #60a4bf;
      }

      .cls-4 {
        fill: #1961a4;
      }

      .cls-5 {
        display: none;
      }

      .cls-6 {
        clip-path: url(#clippath);
      }

      .cls-7 {
        fill: #fff;
        isolation: isolate;
        opacity: .9;
      }
    </style>
    <clipPath id="clippath">
      <path class="cls-1" d="M145.1,1.2h2.8v20.3h9.1v2.6h-11.8V1.2h0ZM114.5,18.1l6-16.9h3.1l-9.1,24.1-6.9-17.8-6.9,17.8L91.7,1.2h3.1l6.1,16.9L107.7,0l6.9,18.1ZM77.9,14.3h3.6l9.9,9.8h-3.6l-9.9-9.8ZM66.7,12.7c0-1.7.3-3.2.8-4.7.6-1.4,1.4-2.7,2.5-3.7,1.1-1.1,2.3-1.9,3.7-2.5,1.4-.6,3-.9,4.7-.9s3.2.3,4.7.9c1.4.6,2.7,1.4,3.7,2.5,1.1,1,1.9,2.3,2.4,3.7.6,1.4.9,3,.9,4.7s-.3,3.2-.9,4.7c-.6,1.4-1.4,2.7-2.4,3.8-1.1,1-2.3,1.9-3.7,2.5-1.4.6-3,.9-4.7.9s-3.2-.3-4.7-.9c-1.4-.6-2.7-1.4-3.7-2.5-1.1-1.1-1.9-2.3-2.5-3.8-.6-1.5-.8-3-.8-4.7ZM69.6,12.7c0,1.7.4,3.3,1.1,4.6.8,1.4,1.8,2.4,3.1,3.2,1.3.8,2.8,1.2,4.5,1.2s3.2-.4,4.5-1.2c1.3-.8,2.4-1.9,3.1-3.2.8-1.3,1.2-2.9,1.2-4.6s-.4-3.3-1.2-4.6c-.8-1.3-1.8-2.4-3.1-3.2-1.3-.8-2.8-1.2-4.5-1.2s-3.2.4-4.5,1.2c-1.3.8-2.4,1.9-3.1,3.2-.7,1.4-1.1,2.9-1.1,4.6ZM49.9,1.2h2.8v23h-2.8V1.2ZM51.4,13v-2.6h11v2.6h-11ZM51.4,3.8V1.2h11.6v2.6h-11.6ZM51.4,24.1v-2.6h11.6v2.6h-11.6ZM22.6,12.7c0-1.7.3-3.2.9-4.7.6-1.4,1.4-2.7,2.5-3.7,1.1-1.1,2.3-1.9,3.7-2.5,1.4-.6,3-.9,4.7-.9s3.2.3,4.7.9c1.4.6,2.7,1.4,3.7,2.5,1.1,1,1.9,2.3,2.5,3.7.6,1.4.9,3,.9,4.7s-.3,3.2-.9,4.7c-.6,1.4-1.4,2.7-2.5,3.8-1.1,1-2.3,1.9-3.7,2.5-1.4.6-3,.9-4.7.9s-3.2-.3-4.7-.9c-1.4-.6-2.7-1.4-3.7-2.5-1.1-1.1-1.9-2.3-2.5-3.8-.6-1.5-.9-3-.9-4.7ZM25.5,12.7c0,1.7.4,3.3,1.1,4.6.8,1.4,1.8,2.4,3.1,3.2,1.3.8,2.8,1.2,4.5,1.2s3.2-.4,4.5-1.2c1.3-.8,2.4-1.9,3.1-3.2.8-1.3,1.2-2.9,1.2-4.6s-.4-3.3-1.2-4.6c-.8-1.3-1.8-2.4-3.1-3.2-1.3-.8-2.8-1.2-4.5-1.2s-3.2.4-4.5,1.2c-1.3.8-2.4,1.9-3.1,3.2-.8,1.4-1.1,2.9-1.1,4.6ZM3,12.7c0,1.8.4,3.3,1.2,4.7.8,1.4,1.9,2.4,3.2,3.2,1.3.8,2.7,1.1,4.2,1.1s2.1-.2,3-.4c.9-.3,1.8-.7,2.5-1.2.8-.5,1.4-1.1,1.9-1.8v3.7c-1,.8-2,1.5-3.2,1.9-1.1.4-2.6.6-4.3.6s-3.1-.3-4.5-.8c-1.4-.6-2.6-1.4-3.7-2.5-1.1-1.1-1.9-2.4-2.5-3.8-.6-1.4-.9-3-.9-4.7s.3-3.3.9-4.7c.6-1.4,1.4-2.7,2.5-3.7s2.3-1.9,3.7-2.4c1.4-.6,2.9-.9,4.5-.9s3.1.2,4.3.6c1.1.4,2.2,1,3.1,1.9v3.7c-.5-.7-1.2-1.3-1.9-1.8-.8-.5-1.6-.9-2.5-1.2-.9-.3-1.9-.4-3-.4s-2.9.4-4.2,1.1c-1.3.8-2.4,1.8-3.2,3.2-.8,1.3-1.2,2.9-1.2,4.7Z"/>
    </clipPath>
  </defs>
  <!-- Generator: Adobe Illustrator 28.6.0, SVG Export Plug-In . SVG Version: 1.2.0 Build 709)  -->
  <g>
    <g id="Layer_1">
      <g class="cls-5">
        <g class="cls-6">
          <path class="cls-2" d="M145.1.9h0v.6h0v-.6ZM145.4,24.1V1.2h-.6v23h.6ZM156.9,23.8h-11.8v.6h11.8v-.6ZM156.7,21.5v2.6h.6v-2.6h-.6ZM147.9,21.8h9.1v-.6h-9.1v.6ZM147.6,1.2v20.3h.6V1.2h-.6ZM145.1,1.5h2.8v-.6h-2.8v.6ZM135.8,15.5l-3.9-9.2-.5.2,3.9,9.2.5-.2ZM136,16.1l-.3-.7-.5.2.3.7.5-.2ZM139.4,24l-3.4-7.9-.5.2,3.4,7.9.5-.2ZM142.3,23.8h-3.1v.6h3.1v-.6ZM131.3.2l10.7,24.1.5-.2L131.8,0l-.5.2ZM121.1,24.2L131.8.2l-.5-.2-10.7,24.1.5.2ZM124,23.8h-3.1v.6h3.1v-.6ZM127.2,16l-3.4,8.1.5.2,3.4-8.1-.5-.2ZM127.4,15.3l-.3.6.5.2.3-.6-.5-.2ZM131.3,6.2l-3.9,9.1.5.2,3.9-9.1-.5-.2ZM137.8,17h-12.2v.6h12.2v-.6ZM136.5,14.7l1,2.6.5-.2-1-2.6-.5.2ZM126.6,14.9h10.2v-.6h-10.2v.6ZM125.8,17.3l1-2.6-.5-.2-1,2.6.5.2ZM107.4.1l6.9,18,.5-.2L107.9,0l-.5.2ZM101.2,18.2L107.9.1l-.5-.2-6.7,18,.5.2ZM94.6,1.3l6.1,16.9.5-.2-6.1-16.9-.5.2ZM91.7,1.5h3.1v-.6h-3.1v.6ZM101,25.2L92,1.1l-.5.2,9.1,24.1.5-.2ZM107.4,7.3l-6.9,17.8.5.2,6.9-17.8-.5-.2ZM114.9,25.2l-6.9-17.8-.5.2,6.9,17.8.5-.2ZM123.4,1.1l-9.1,24.1.5.2L123.9,1.3l-.5-.2ZM120.5,1.5h3.1v-.6h-3.1v.6ZM114.8,18.1l6-16.9-.5-.2-6,16.9.5.2ZM87.9,23.9l-9.9-9.8-.4.4,9.9,9.8.4-.4ZM91.4,23.8h-3.6v.6h3.6v-.6ZM81.3,14.5l9.9,9.8.4-.4-9.9-9.8-.4.4ZM77.9,14.6h3.6v-.6h-3.6v.6ZM67.8,17.2c-.5-1.4-.8-2.9-.8-4.6h-.6c0,1.7.3,3.3.9,4.8l.5-.2ZM70.2,20.9c-1-1.1-1.8-2.3-2.4-3.7l-.5.2c.6,1.5,1.4,2.7,2.5,3.9l.4-.4ZM73.8,23.3c-1.4-.6-2.6-1.4-3.6-2.4l-.4.4c1.1,1.1,2.3,1.9,3.8,2.6l.2-.5ZM78.4,24.2c-1.6,0-3.1-.3-4.6-.9l-.2.5c1.5.6,3.1.9,4.8.9v-.6ZM82.9,23.3c-1.4.6-2.9.9-4.5.9v.6c1.7,0,3.3-.3,4.8-.9l-.2-.5ZM86.5,20.9c-1,1-2.2,1.8-3.6,2.4l.2.5c1.4-.6,2.7-1.5,3.8-2.6l-.4-.4ZM88.9,17.2c-.6,1.4-1.4,2.6-2.4,3.7l.4.4c1.1-1.1,1.9-2.4,2.5-3.9l-.5-.2ZM89.8,12.7c0,1.6-.3,3.1-.9,4.6l.5.2c.6-1.5.9-3.1.9-4.8,0,0-.6,0-.6,0ZM88.9,8.1c.6,1.4.8,2.9.8,4.6h.6c0-1.7-.3-3.3-.9-4.8l-.5.2ZM86.5,4.5c1,1,1.8,2.2,2.4,3.6l.5-.2c-.6-1.5-1.4-2.8-2.5-3.8l-.4.4ZM82.9,2c1.4.6,2.6,1.4,3.6,2.4l.4-.4c-1.1-1.1-2.4-2-3.8-2.6l-.2.5ZM78.4,1.1c1.7,0,3.2.3,4.5.9l.2-.5c-1.5-.7-3-1-4.8-1,0,0,0,.6,0,.6ZM73.8,2c1.4-.6,2.9-.9,4.5-.9v-.6c-1.7,0-3.3.3-4.8,1l.2.5ZM70.2,4.5c1-1.1,2.2-1.8,3.6-2.4l-.2-.5c-1.4.6-2.7,1.4-3.8,2.6l.4.4ZM67.8,8.1c.6-1.4,1.4-2.6,2.4-3.6l-.4-.4c-1.1,1.1-1.9,2.3-2.5,3.8l.5.2ZM67,12.7c0-1.6.3-3.2.8-4.6l-.5-.2c-.6,1.4-.9,3.1-.9,4.8h.6ZM70.5,7.9c-.8,1.4-1.2,3-1.2,4.8h.6c0-1.7.4-3.2,1.1-4.5l-.5-.3ZM73.7,4.6c-1.3.8-2.4,1.9-3.2,3.3l.5.3c.8-1.3,1.8-2.4,3-3.1l-.3-.5ZM78.4,3.4c-1.7,0-3.3.4-4.6,1.2l.3.5c1.2-.8,2.7-1.1,4.3-1.1v-.6ZM83,4.6c-1.3-.8-2.9-1.2-4.6-1.2v.6c1.7,0,3.1.4,4.3,1.1l.3-.5ZM86.2,7.9c-.8-1.4-1.8-2.5-3.2-3.3l-.3.5c1.2.8,2.2,1.8,3,3.1l.5-.3ZM87.4,12.7c0-1.8-.4-3.4-1.2-4.8l-.5.3c.7,1.3,1.1,2.8,1.1,4.5,0,0,.6,0,.6,0ZM86.2,17.4c.8-1.4,1.2-3,1.2-4.8h-.6c0,1.7-.4,3.2-1.1,4.5l.5.3ZM83,20.8c1.4-.8,2.4-1.9,3.2-3.3l-.5-.3c-.7,1.3-1.7,2.4-3,3.1l.3.5ZM78.4,22c1.7,0,3.3-.4,4.6-1.2l-.3-.5c-1.2.8-2.7,1.1-4.3,1.1v.6ZM73.7,20.8c1.4.8,2.9,1.2,4.6,1.2v-.6c-1.6,0-3-.4-4.3-1.1l-.3.5ZM70.5,17.4c.8,1.4,1.9,2.5,3.2,3.3l.3-.5c-1.3-.8-2.3-1.8-3-3.1l-.5.3ZM69.3,12.7c0,1.8.4,3.4,1.2,4.8l.5-.3c-.7-1.3-1.1-2.8-1.1-4.5h-.6ZM50.2,24.1V1.2h-.6v23h.6ZM52.7,23.8h-2.8v.6h2.8v-.6ZM52.4,1.2v23h.6V1.2h-.6ZM49.9,1.5h2.8v-.6h-2.8v.6ZM62.4,12.7h-11v.6h11v-.6ZM62.1,10.4v2.6h.6v-2.6s-.6,0-.6,0ZM51.4,10.6h11v-.6h-11v.6ZM51.7,13v-2.6h-.6v2.6h.6ZM63.1,3.5h-11.6v.6h11.6v-.6ZM62.8,1.2v2.6h.6V1.2h-.6ZM51.4,1.5h11.6v-.6h-11.6v.6ZM51.7,3.8V1.2h-.6v2.6s.6,0,.6,0ZM63.1,23.8h-11.6v.6h11.6v-.6ZM62.8,21.5v2.6h.6v-2.6h-.6ZM51.4,21.8h11.6v-.6h-11.6v.6ZM51.7,24.1v-2.6h-.6v2.6s.6,0,.6,0ZM23.7,17.2c-.6-1.4-.8-2.9-.8-4.6h-.6c0,1.7.3,3.3.9,4.8l.5-.2ZM26.1,20.9c-1-1.1-1.8-2.3-2.4-3.7l-.5.2c.6,1.5,1.5,2.7,2.5,3.9l.4-.4ZM29.7,23.3c-1.4-.6-2.6-1.4-3.6-2.4l-.4.4c1.1,1.1,2.4,1.9,3.8,2.6l.2-.5ZM34.3,24.2c-1.6,0-3.1-.3-4.5-.9l-.2.5c1.5.6,3.1.9,4.8.9,0,0,0-.6,0-.6ZM38.8,23.3c-1.4.6-2.9.9-4.5.9v.6c1.7,0,3.3-.3,4.8-.9l-.2-.5ZM42.4,20.9c-1,1-2.2,1.8-3.6,2.4l.2.5c1.5-.6,2.7-1.5,3.8-2.6l-.4-.4ZM44.8,17.2c-.6,1.4-1.4,2.6-2.4,3.7l.4.4c1.1-1.1,1.9-2.4,2.5-3.9l-.5-.2ZM45.6,12.7c0,1.6-.3,3.1-.9,4.6l.5.2c.6-1.5.9-3.1.9-4.8,0,0-.6,0-.6,0ZM44.8,8.1c.6,1.4.8,2.9.8,4.6h.6c0-1.7-.3-3.3-.9-4.8l-.5.2ZM42.4,4.5c1,1,1.8,2.2,2.4,3.6l.5-.2c-.6-1.5-1.4-2.8-2.5-3.8l-.4.4ZM38.8,2c1.4.6,2.6,1.4,3.6,2.4l.4-.4c-1.1-1.1-2.4-2-3.8-2.6l-.2.5ZM34.3,1.1c1.7,0,3.2.3,4.5.9l.2-.5c-1.5-.7-3-1-4.8-1v.6ZM29.7,2c1.4-.6,2.9-.9,4.5-.9v-.6c-1.7,0-3.3.3-4.8,1l.2.5ZM26.1,4.5c1-1.1,2.2-1.8,3.6-2.4l-.2-.5c-1.5.6-2.7,1.4-3.8,2.6l.4.4ZM23.7,8.1c.6-1.4,1.4-2.6,2.4-3.6l-.4-.4c-1.1,1.1-1.9,2.3-2.5,3.8l.5.2ZM22.8,12.7c0-1.6.3-3.2.8-4.6l-.5-.2c-.6,1.4-.9,3.1-.9,4.8h.6ZM26.4,7.9c-.8,1.4-1.1,3-1.1,4.8h.6c0-1.7.4-3.2,1.1-4.5l-.5-.3ZM29.6,4.6c-1.4.8-2.5,1.9-3.2,3.3l.5.3c.7-1.3,1.8-2.4,3-3.1l-.3-.5ZM34.3,3.4c-1.7,0-3.3.4-4.6,1.2l.3.5c1.2-.8,2.7-1.1,4.3-1.1v-.6ZM38.9,4.6c-1.3-.8-2.9-1.2-4.6-1.2v.6c1.7,0,3.1.4,4.3,1.1l.3-.5ZM42.1,7.9c-.8-1.4-1.8-2.5-3.2-3.3l-.3.5c1.2.8,2.2,1.8,3,3.1l.5-.3ZM43.2,12.7c0-1.8-.4-3.4-1.2-4.8l-.5.3c.7,1.3,1.1,2.8,1.1,4.5,0,0,.6,0,.6,0ZM42.1,17.4c.8-1.4,1.2-3,1.2-4.8h-.6c0,1.7-.4,3.2-1.1,4.5l.5.3ZM38.9,20.8c1.4-.8,2.4-1.9,3.2-3.3l-.5-.3c-.7,1.3-1.7,2.4-3,3.1l.3.5ZM34.3,22c1.7,0,3.3-.4,4.6-1.2l-.3-.5c-1.2.8-2.7,1.1-4.3,1.1v.6ZM29.6,20.8c1.4.8,2.9,1.2,4.6,1.2v-.6c-1.6,0-3-.4-4.3-1.1l-.3.5ZM26.4,17.4c.8,1.4,1.9,2.5,3.3,3.3l.3-.5c-1.3-.8-2.3-1.8-3-3.1l-.5.3ZM25.2,12.7c0,1.8.4,3.4,1.1,4.8l.5-.3c-.7-1.3-1.1-2.8-1.1-4.5h-.6ZM3.9,7.8c-.8,1.4-1.2,3-1.2,4.8h.6c0-1.8.4-3.3,1.1-4.6l-.5-.3ZM7.2,4.5c-1.4.8-2.4,1.9-3.3,3.3l.5.3c.8-1.3,1.8-2.4,3.1-3.1l-.3-.5ZM11.5,3.4c-1.6,0-3,.4-4.4,1.2l.3.5c1.3-.7,2.6-1.1,4.1-1.1v-.6h0ZM14.6,3.8c-.9-.3-2-.4-3.1-.4v.6c1.1,0,2,.2,2.9.4l.2-.6ZM17.2,5c-.8-.5-1.6-1-2.6-1.2l-.2.6c.9.3,1.7.7,2.4,1.2l.3-.5ZM19.2,6.9c-.5-.7-1.2-1.3-2-1.8l-.3.5c.7.5,1.4,1.1,1.8,1.7l.5-.3ZM18.6,3.4v3.7h.6v-3.7h-.6ZM15.7,1.8c1.1.4,2.1,1,3,1.8l.4-.4c-1-.9-2.1-1.5-3.2-1.9l-.2.5ZM11.5,1.2c1.7,0,3,.2,4.2.6l.2-.5c-1.2-.4-2.6-.7-4.4-.7v.6ZM7.1,2c1.4-.6,2.8-.8,4.4-.8v-.6c-1.6,0-3.1.3-4.6.9l.2.5ZM3.6,4.4c1-1,2.2-1.8,3.6-2.4l-.2-.5c-1.4.5-2.7,1.4-3.8,2.5l.4.4ZM1.2,8c.6-1.4,1.4-2.6,2.4-3.6l-.4-.4c-1.1,1.1-2,2.3-2.5,3.8l.5.2ZM.3,12.6c0-1.7.3-3.2.9-4.6l-.5-.2c-.6,1.5-.9,3.1-.9,4.8H.3ZM1.2,17.2c-.6-1.4-.8-2.9-.8-4.6H-.3c0,1.8.3,3.3.9,4.8l.5-.2ZM3.6,21c-1-1.1-1.8-2.3-2.4-3.7l-.5.2c.6,1.5,1.4,2.8,2.5,3.9l.4-.4ZM7.1,23.4c-1.4-.6-2.5-1.4-3.6-2.4l-.4.4c1.1,1.1,2.3,1.9,3.7,2.5l.2-.5ZM11.5,24.2c-1.6,0-3-.3-4.4-.8l-.2.5c1.4.6,3,.9,4.6.9v-.6ZM15.7,23.6c-1.1.4-2.5.6-4.2.6v.6c1.7,0,3.2-.2,4.4-.6l-.2-.5ZM18.8,21.7c-.9.8-2,1.4-3.1,1.8l.2.5c1.2-.4,2.3-1.1,3.3-2l-.4-.4ZM18.7,18.3v3.7h.6v-3.7h-.6ZM17.2,20.3c.8-.5,1.4-1.1,2-1.9l-.5-.3c-.5.7-1.1,1.2-1.8,1.7l.3.5ZM14.6,21.5c1-.3,1.8-.7,2.6-1.2l-.3-.5c-.7.5-1.5.9-2.4,1.1l.2.5ZM11.6,22c1.1,0,2.1-.1,3.1-.4l-.2-.5c-.9.3-1.9.4-2.9.4v.6ZM7.2,20.8c1.4.8,2.8,1.2,4.4,1.2v-.6c-1.5,0-2.8-.4-4.1-1.1l-.3.5ZM3.9,17.5c.8,1.4,1.9,2.5,3.3,3.3l.3-.5c-1.3-.8-2.3-1.8-3.1-3.1l-.5.3ZM2.7,12.7c0,1.8.4,3.4,1.2,4.8l.5-.3c-.8-1.3-1.1-2.8-1.1-4.6,0,0-.6,0-.6,0ZM145.1,1.2h.3v-.3h-.3v.3ZM145.1,24.1h-.3v.3h.3v-.3ZM156.9,24.1v.3h.3v-.3h-.3ZM156.9,21.5h.3v-.3h-.3v.3ZM147.9,21.5h-.3v.3h.3v-.3ZM147.9,1.2h.3v-.3h-.3v.3ZM135.5,15.6h.3c0-.1-.3,0-.3,0ZM135.8,16.2h-.3c0,.1.3,0,.3,0ZM139.1,24.1h-.3c0,.1,0,.3,0,.3h.2v-.3h0ZM142.3,24.1v.3h.4l-.2-.4h-.3ZM131.6,0h.3c0-.1-.3-.7-.3-.7l-.3.6h.3ZM120.9,24.1h-.3c0-.1-.2.3-.2.3h.4v-.3ZM124,24.1v.3h.2v-.2c0,0-.2-.1-.2-.1ZM127.4,16.1h-.3c0-.1.3,0,.3,0ZM127.7,15.5h.3c0,.1-.3,0-.3,0ZM131.6,6.4h.3c0-.1-.3-.7-.3-.7l-.3.6h.3ZM137.8,17.2v.3h.4v-.4c-.1,0-.4,0-.4,0ZM136.8,14.6h.3c0-.1,0-.3,0-.3h-.2v.3ZM126.6,14.6v-.3h-.2v.2c0,0,.2.1.2.1ZM125.6,17.2h-.3c0-.1-.1.3-.1.3h.4v-.3ZM107.7,0h.3c0,0-.3-.8-.3-.8l-.3.7h.3ZM101,18.1h-.3c0,.1.3.8.3.8l.3-.7h-.3ZM94.8,1.2h.3c0,0,0-.3,0-.3h-.2v.3ZM91.7,1.2v-.3h-.4l.2.4h.3ZM100.7,25.3h-.3c0,.1.3.8.3.8l.3-.7h-.3ZM107.7,7.4h.3c0-.1-.3-.8-.3-.8l-.3.7h.3ZM114.6,25.3h-.3c0,.1.3.8.3.8l.3-.7h-.3ZM123.7,1.2h.3c0,0,.2-.3.2-.3h-.4v.3ZM120.5,1.2v-.3h-.2v.2c0,0,.2,0,.2,0ZM114.5,18.1h-.3c0,.1.3.8.3.8l.3-.7h-.3ZM87.7,24.1l-.2.2h0c0,0,.1,0,.1,0,0,0,0-.3,0-.3ZM91.4,24.1v.3h.7l-.5-.5-.2.2ZM81.5,14.3l.2-.2h0c0,0-.1,0-.1,0,0,0,0,.3,0,.3ZM77.9,14.3v-.3h-.7l.5.5.2-.2ZM67.5,17.3h-.3c0,.1.3,0,.3,0ZM70,21.1l-.2.2h0l.2-.2ZM73.7,23.6v.3h-.1v-.3ZM83,23.6v.3h.1v-.3ZM89.2,8h-.3c0,.1.3,0,.3,0ZM86.7,4.3l-.2.2h0l.2-.2ZM83,1.8v.3h-.1v-.3ZM70,4.3l.2.2h0l-.2-.2ZM67.5,8h-.3c0-.1.3,0,.3,0ZM70.7,8h-.2c0-.1.2,0,.2,0ZM85.9,17.3h-.2c0-.1.2,0,.2,0ZM82.8,20.5l-.2-.2h0l.2.2ZM49.9,24.1h-.3v.3h.3v-.3ZM52.7,24.1v.3h.3v-.3h-.3ZM52.7,1.2h.3v-.3h-.3v.3ZM49.9,1.2v-.3h-.3v.3h.3ZM62.4,13v.3h.3v-.3h-.3ZM62.4,10.4h.3v-.3h-.3v.3ZM51.4,10.4v-.3h-.3v.3h.3ZM51.4,13h-.3v.3h.3v-.3ZM63.1,3.8v.3h.3v-.3h-.3ZM63.1,1.2h.3v-.3h-.3v.3ZM51.4,1.2v-.3h-.3v.3h.3ZM51.4,3.8h-.3v.3h.3v-.3ZM63.1,24.1v.3h.3v-.3h-.3ZM63.1,21.5h.3v-.3h-.3v.3ZM51.4,21.5v-.3h-.3v.3h.3ZM51.4,24.1h-.3v.3h.3v-.3ZM23.4,17.3h-.3c0,.1.3,0,.3,0ZM25.9,21.1l-.2.2h0l.2-.2ZM29.6,23.6v.3h-.1v-.3ZM38.9,23.6v.3h.1v-.3ZM45.1,8h-.3c0,.1.3,0,.3,0ZM42.6,4.3l-.2.2h0l.2-.2ZM38.9,1.8v.3h-.1v-.3ZM25.9,4.3l.2.2h0l-.2-.2ZM23.4,8h-.3c0-.1.3,0,.3,0ZM29.8,4.8l.2.2h0l-.2-.2ZM41.8,17.3h-.2c0-.1.2,0,.2,0ZM38.7,20.5l-.2-.2h0l.2.2ZM4.1,8h-.2c0-.1.2,0,.2,0ZM14.5,4.1v.3h0v-.3ZM17,5.3l.2-.2h0l-.2.2ZM18.9,7l-.2.2.5.7v-.9h-.3ZM18.9,3.4h.3c0-.1-.1-.2-.1-.2l-.2.2ZM15.8,1.5v.3h-.1v-.3ZM7,1.7v.3h.1v-.3ZM3.4,21.2l-.2.2h0l.2-.2ZM7,23.6v.3h-.1v-.3ZM19,22l.2.2h.1v-.2h-.3ZM19,18.3h.3v-.9l-.5.7.2.2ZM17.1,20.1v.2h.1v-.2ZM14.6,21.3v-.3h0v.3ZM4.2,17.4h-.2c0,.1.2,0,.2,0Z"/>
        </g>
      </g>
      <g>
        <path class="cls-2" d="M145.1,1.2h2.8v20.3h9.1v2.6h-11.8V1.2h0ZM114.5,18.1l6-16.9h3.1l-9.1,24.1-6.9-17.8-6.9,17.8L91.7,1.2h3.1l6.1,16.9L107.7,0l6.9,18.1ZM77.9,14.3h3.6l9.9,9.8h-3.6l-9.9-9.8ZM66.7,12.7c0-1.7.3-3.2.8-4.7.6-1.4,1.4-2.7,2.5-3.7,1.1-1.1,2.3-1.9,3.7-2.5,1.4-.6,3-.9,4.7-.9s3.2.3,4.7.9c1.4.6,2.7,1.4,3.7,2.5,1.1,1,1.9,2.3,2.4,3.7.6,1.4.9,3,.9,4.7s-.3,3.2-.9,4.7c-.6,1.4-1.4,2.7-2.4,3.8-1.1,1-2.3,1.9-3.7,2.5-1.4.6-3,.9-4.7.9s-3.2-.3-4.7-.9c-1.4-.6-2.7-1.4-3.7-2.5-1.1-1.1-1.9-2.3-2.5-3.8-.6-1.5-.8-3-.8-4.7ZM69.6,12.7c0,1.7.4,3.3,1.1,4.6s1.8,2.4,3.1,3.2c1.3.8,2.8,1.2,4.5,1.2s3.2-.4,4.5-1.2c1.3-.8,2.4-1.9,3.1-3.2.8-1.4,1.2-2.9,1.2-4.6s-.4-3.3-1.2-4.6-1.8-2.4-3.1-3.2-2.8-1.2-4.5-1.2-3.2.4-4.5,1.2c-1.3.8-2.4,1.9-3.1,3.2-.7,1.3-1.1,2.9-1.1,4.6ZM49.9,1.2h2.8v23h-2.8V1.2ZM51.4,13v-2.6h11v2.6h-11ZM51.4,3.8V1.2h11.6v2.6s-11.6,0-11.6,0ZM51.4,24.1v-2.6h11.6v2.6s-11.6,0-11.6,0ZM22.6,12.7c0-1.7.3-3.2.9-4.7.6-1.4,1.4-2.7,2.5-3.7,1.1-1.1,2.3-1.9,3.7-2.5,1.4-.6,3-.9,4.7-.9s3.2.3,4.7.9c1.4.6,2.7,1.4,3.7,2.5,1.1,1,1.9,2.3,2.5,3.7.6,1.4.9,3,.9,4.7s-.3,3.2-.9,4.7c-.6,1.4-1.4,2.7-2.5,3.8-1.1,1-2.3,1.9-3.7,2.5-1.4.6-3,.9-4.7.9s-3.2-.3-4.7-.9c-1.4-.6-2.7-1.4-3.7-2.5-1.1-1.1-1.9-2.3-2.5-3.8-.6-1.5-.9-3-.9-4.7ZM25.5,12.7c0,1.7.4,3.3,1.1,4.6s1.8,2.4,3.1,3.2c1.3.8,2.8,1.2,4.5,1.2s3.2-.4,4.5-1.2c1.3-.8,2.4-1.9,3.1-3.2.8-1.4,1.2-2.9,1.2-4.6s-.4-3.3-1.2-4.6c-.8-1.4-1.8-2.4-3.1-3.2-1.3-.8-2.8-1.2-4.5-1.2s-3.2.4-4.5,1.2c-1.3.8-2.4,1.9-3.1,3.2-.8,1.3-1.1,2.9-1.1,4.6ZM3,12.7c0,1.8.4,3.3,1.2,4.7.8,1.4,1.9,2.4,3.2,3.2s2.7,1.1,4.2,1.1,2.1-.1,3-.4c.9-.3,1.8-.7,2.5-1.2.8-.5,1.4-1.1,1.9-1.8v3.7c-1,.8-2,1.5-3.2,1.9s-2.6.6-4.3.6-3.1-.3-4.5-.8c-1.4-.6-2.6-1.4-3.7-2.5-1.1-1.1-1.9-2.4-2.5-3.8-.6-1.4-.9-3-.9-4.7s.3-3.3.9-4.7c.6-1.4,1.4-2.7,2.5-3.7s2.3-1.9,3.7-2.4c1.4-.6,2.9-.9,4.5-.9s3.1.2,4.3.6c1.1.4,2.2,1,3.1,1.9v3.7c-.5-.7-1.2-1.3-1.9-1.8-.8-.5-1.6-.9-2.5-1.2-.9-.3-1.9-.4-3-.4s-2.9.4-4.2,1.1c-1.3.8-2.4,1.8-3.2,3.2-.8,1.3-1.2,2.9-1.2,4.7Z"/>
        <path class="cls-3" d="M17,20.1c-.8.5-1.6.9-2.5,1.2-.9.3-1.9.4-3,.4s-2.9-.4-4.2-1.1c-1.3-.8-2.3-1.8-3.2-3.2-.6-1.1-1-2.3-1.1-3.6-.4,0-.7-.2-1.1-.2-.7-.1-1.3.1-1.7.7,0,0,0,.1-.2.1.1,1,.4,2.1.8,3,.6,1.4,1.4,2.7,2.5,3.8,1.1,1,2.3,1.9,3.7,2.5,1.4.6,2.9.8,4.5.8s3.1-.2,4.3-.6c1.1-.4,2.2-1,3.2-1.9v-3.6c-.6.7-1.2,1.3-1.9,1.8Z"/>
        <path class="cls-3" d="M52.7,14.1c-.5-.2-1-.4-1.6,0-.2,0-.5.1-.8,0-.2,0-.3,0-.4,0v10h13.2v-2.6h-10.4v-7.5s0,0,0,0Z"/>
        <path class="cls-3" d="M147.9,21.5v-9.1c-.5-.1-1.1-.1-1.6,0-.4,0-.8.1-1.2.3v11.5h11.8v-2.6h-9Z"/>
        <path class="cls-3" d="M89.2,17.3c.5-1.3.8-2.6.9-4-.8-.5-2,.3-3,.4-.1,1.3-.5,2.5-1.1,3.6-.2.3-.4.6-.6.9l-3.9-3.9h-3.6l5.7,5.7c-.2.2-.5.3-.7.5-1.3.8-2.8,1.2-4.5,1.2s-3.2-.4-4.5-1.2c-1.3-.8-2.4-1.9-3.1-3.2-.6-1.1-1-2.4-1.1-3.8-1-.1-2-.1-3,.1,0,1.3.4,2.6.8,3.7.6,1.4,1.4,2.7,2.5,3.8,1.1,1,2.3,1.9,3.7,2.5,1.4.6,3,.9,4.7.9s3.2-.3,4.7-.9c1-.4,1.8-.9,2.6-1.5l2.1,2.1h3.6l-3.9-3.9c.7-.8,1.2-1.8,1.7-2.9Z"/>
        <path class="cls-3" d="M103.1,12.4l-2.1,5.6-2.2-6.1c-1,0-2.1.4-2.6,1.1l4.6,12.2,4.9-12.5c-.9,0-1.7,0-2.6-.3Z"/>
        <path class="cls-3" d="M118.4,13.4c-.8,0-1.5,0-2.2,0l-1.7,4.7-2.2-5.7c-.9-.2-1.8-.1-2.8,0l5,12.9,4.5-11.9c-.3,0-.5,0-.7,0Z"/>
        <path class="cls-3" d="M45.2,13.5c-.7-.5-1.5-.5-2.3-.8,0,1.7-.4,3.2-1.2,4.5-.8,1.4-1.8,2.4-3.1,3.2-1.3.8-2.8,1.2-4.5,1.2s-3.2-.4-4.5-1.2c-1.3-.8-2.4-1.9-3.1-3.2-.5-.8-.8-1.7-.9-2.7-.5,0-1,0-1.5-.4-.5,0-1.1.1-1.6.2.1,1,.4,2,.7,2.9.6,1.4,1.4,2.7,2.5,3.8s2.3,1.9,3.7,2.5c1.4.6,3,.9,4.7.9s3.2-.3,4.7-.9c1.4-.6,2.7-1.4,3.7-2.5,1.1-1.1,1.9-2.3,2.5-3.8.5-1.1.7-2.3.8-3.5-.3,0-.5,0-.7-.2Z"/>
        <path class="cls-3" d="M123.5,12.6h0c-.3.8-.6,1.6-.8,2.3h0c0,.1,0,.1,0,.1-.1.5-.2.9-.2,1.4,0,5.1,4.6,9.1,9.9,9.1s9.9-3.9,9.9-9.1,0,0,0,0c0-.5,0-1-.2-1.5h0,0c-.2-.9-.5-1.6-.9-2.4h0M138.4,12.5h-12.1"/>
        <path class="cls-4" d="M138.4,12.5"/>
        <path class="cls-7" d="M132.3,23c-4.3,0-7.5-3.1-7.5-6.6s.1-.8.3-1.4h14.4c.2.5.3,1,.3,1.4h0c0,3.6-3.2,6.6-7.5,6.6Z"/>
        <path class="cls-2" d="M128.9,8.4c1.1-1.5,2.1-2.9,2.9-3.9.1-.2.3-.3.4-.5.1.2.3.3.4.5.8,1,1.9,2.4,2.9,3.9,1,1.4,1.9,2.8,2.7,4.2h2.8c-.1-.3-.2-.5-.4-.8-.9-1.6-2-3.4-3.1-4.9-1.1-1.6-2.2-3-3-4-.4-.5-.8-.9-1-1.2-.1-.2-.2-.3-.3-.3s0,0,0,0c0,0,0,0,0,0h0s0,0-.9.8l.9-.8c-.2-.3-.6-.4-.9-.4s-.7.2-.9.4l.5.5c-.5-.4-.5-.5-.5-.5h0s0,0,0,0c0,0,0,0,0,0,0,0-.2.2-.3.3-.2.3-.6.7-1,1.2-.8,1-1.9,2.4-3,4-1.1,1.6-2.2,3.3-3.1,4.9-.2.3-.3.6-.4.8h0,2.8c.8-1.4,1.7-2.9,2.7-4.3Z"/>
      </g>
    </g>
  </g>
</svg>