<?xml version="1.0" encoding="UTF-8"?>
<svg xmlns="http://www.w3.org/2000/svg" xmlns:xlink="http://www.w3.org/1999/xlink" version="1.1" viewBox="0 0 164.1 32.1">
  <defs>
    <style>
      .cls-1 {
        fill: none;
      }

      .cls-2 {
        fill: #135773;
      }

      .cls-3 {
        fill: #60a4bf;
      }

      .cls-4 {
        fill: #1961a4;
      }

      .cls-5 {
        display: none;
      }

      .cls-6 {
        clip-path: url(#clippath);
      }

      .cls-7 {
        fill: #fff;
        isolation: isolate;
        opacity: .9;
      }
    </style>
    <clipPath id="clippath">
      <path class="cls-1" d="M148.8,4.5h2.8v20.3h9.1v2.6h-11.8V4.5h0ZM118.2,21.4l6-16.9h3.1l-9.1,24.1-6.9-17.8-6.9,17.8-9.1-24.1h3.1l6.1,16.9,6.7-18,6.9,18.1ZM81.6,17.6h3.6l9.9,9.8h-3.6l-9.9-9.8ZM70.4,16c0-1.7.3-3.2.8-4.7.6-1.4,1.4-2.7,2.5-3.7,1.1-1.1,2.3-1.9,3.7-2.5,1.4-.6,3-.9,4.7-.9s3.2.3,4.7.9c1.4.6,2.7,1.4,3.7,2.5,1.1,1,1.9,2.3,2.4,3.7.6,1.4.9,3,.9,4.7s-.3,3.2-.9,4.7c-.6,1.4-1.4,2.7-2.4,3.8-1.1,1-2.3,1.9-3.7,2.5-1.4.6-3,.9-4.7.9s-3.2-.3-4.7-.9c-1.4-.6-2.7-1.4-3.7-2.5-1.1-1.1-1.9-2.3-2.5-3.8-.6-1.5-.8-3-.8-4.7ZM73.3,16c0,1.7.4,3.3,1.1,4.6.8,1.4,1.8,2.4,3.1,3.2,1.3.8,2.8,1.2,4.5,1.2s3.2-.4,4.5-1.2c1.3-.8,2.4-1.9,3.1-3.2.8-1.3,1.2-2.9,1.2-4.6s-.4-3.3-1.2-4.6c-.8-1.3-1.8-2.4-3.1-3.2-1.3-.8-2.8-1.2-4.5-1.2s-3.2.4-4.5,1.2c-1.3.8-2.4,1.9-3.1,3.2-.7,1.4-1.1,2.9-1.1,4.6ZM53.6,4.5h2.8v23h-2.8V4.5ZM55.1,16.3v-2.6h11v2.6h-11ZM55.1,7.1v-2.6h11.6v2.6h-11.6ZM55.1,27.4v-2.6h11.6v2.6h-11.6ZM26.2,16c0-1.7.3-3.2.9-4.7.6-1.4,1.4-2.7,2.5-3.7,1.1-1.1,2.3-1.9,3.7-2.5,1.4-.6,3-.9,4.7-.9s3.2.3,4.7.9c1.4.6,2.7,1.4,3.7,2.5,1.1,1,1.9,2.3,2.5,3.7.6,1.4.9,3,.9,4.7s-.3,3.2-.9,4.7c-.6,1.4-1.4,2.7-2.5,3.8-1.1,1-2.3,1.9-3.7,2.5-1.4.6-3,.9-4.7.9s-3.2-.3-4.7-.9c-1.4-.6-2.7-1.4-3.7-2.5-1.1-1.1-1.9-2.3-2.5-3.8-.6-1.5-.9-3-.9-4.7ZM29.2,16c0,1.7.4,3.3,1.1,4.6.8,1.4,1.8,2.4,3.1,3.2,1.3.8,2.8,1.2,4.5,1.2s3.2-.4,4.5-1.2c1.3-.8,2.4-1.9,3.1-3.2.8-1.3,1.2-2.9,1.2-4.6s-.4-3.3-1.2-4.6c-.8-1.3-1.8-2.4-3.1-3.2-1.3-.8-2.8-1.2-4.5-1.2s-3.2.4-4.5,1.2c-1.3.8-2.4,1.9-3.1,3.2-.8,1.4-1.1,2.9-1.1,4.6ZM6.7,16c0,1.8.4,3.3,1.2,4.7.8,1.4,1.9,2.4,3.2,3.2,1.3.8,2.7,1.1,4.2,1.1s2.1-.2,3-.4c.9-.3,1.8-.7,2.5-1.2.8-.5,1.4-1.1,1.9-1.8v3.7c-1,.8-2,1.5-3.2,1.9-1.1.4-2.6.6-4.3.6s-3.1-.3-4.5-.8c-1.4-.6-2.6-1.4-3.7-2.5-1.1-1.1-1.9-2.4-2.5-3.8-.6-1.4-.9-3-.9-4.7s.3-3.3.9-4.7c.6-1.4,1.4-2.7,2.5-3.7s2.3-1.9,3.7-2.4c1.4-.6,2.9-.9,4.5-.9s3.1.2,4.3.6c1.1.4,2.2,1,3.1,1.9v3.7c-.5-.7-1.2-1.3-1.9-1.8-.8-.5-1.6-.9-2.5-1.2-.9-.3-1.9-.4-3-.4s-2.9.4-4.2,1.1c-1.3.8-2.4,1.8-3.2,3.2-.8,1.3-1.2,2.9-1.2,4.7Z"/>
    </clipPath>
  </defs>
  <!-- Generator: Adobe Illustrator 28.7.5, SVG Export Plug-In . SVG Version: 1.2.0 Build 176)  -->
  <g>
    <g id="Layer_1">
      <path class="cls-2" d="M148.8,4.5h2.8v20.3h9.1v2.6h-11.8V4.5h0ZM118.2,21.4l6-16.9h3.1l-9.1,24.1-6.9-17.8-6.9,17.8-9.1-24.1h3.1l6.1,16.9,6.7-18,6.9,18.1ZM81.6,17.6h3.6l9.9,9.8h-3.6l-9.9-9.8ZM70.4,16c0-1.7.3-3.2.8-4.7.6-1.4,1.4-2.7,2.5-3.7,1.1-1.1,2.3-1.9,3.7-2.5,1.4-.6,3-.9,4.7-.9s3.2.3,4.7.9c1.4.6,2.7,1.4,3.7,2.5,1.1,1,1.9,2.3,2.4,3.7.6,1.4.9,3,.9,4.7s-.3,3.2-.9,4.7c-.6,1.4-1.4,2.7-2.4,3.8-1.1,1-2.3,1.9-3.7,2.5-1.4.6-3,.9-4.7.9s-3.2-.3-4.7-.9c-1.4-.6-2.7-1.4-3.7-2.5-1.1-1.1-1.9-2.3-2.5-3.8-.6-1.5-.8-3-.8-4.7ZM73.3,16c0,1.7.4,3.3,1.1,4.6s1.8,2.4,3.1,3.2c1.3.8,2.8,1.2,4.5,1.2s3.2-.4,4.5-1.2c1.3-.8,2.4-1.9,3.1-3.2.8-1.4,1.2-2.9,1.2-4.6s-.4-3.3-1.2-4.6-1.8-2.4-3.1-3.2-2.8-1.2-4.5-1.2-3.2.4-4.5,1.2c-1.3.8-2.4,1.9-3.1,3.2-.7,1.3-1.1,2.9-1.1,4.6ZM53.6,4.5h2.8v23h-2.8V4.5ZM55.1,16.3v-2.6h11v2.6h-11ZM55.1,7.1v-2.6h11.6v2.6s-11.6,0-11.6,0ZM55.1,27.4v-2.6h11.6v2.6s-11.6,0-11.6,0ZM26.2,16c0-1.7.3-3.2.9-4.7.6-1.4,1.4-2.7,2.5-3.7,1.1-1.1,2.3-1.9,3.7-2.5,1.4-.6,3-.9,4.7-.9s3.2.3,4.7.9c1.4.6,2.7,1.4,3.7,2.5,1.1,1,1.9,2.3,2.5,3.7.6,1.4.9,3,.9,4.7s-.3,3.2-.9,4.7c-.6,1.4-1.4,2.7-2.5,3.8-1.1,1-2.3,1.9-3.7,2.5-1.4.6-3,.9-4.7.9s-3.2-.3-4.7-.9c-1.4-.6-2.7-1.4-3.7-2.5-1.1-1.1-1.9-2.3-2.5-3.8-.6-1.5-.9-3-.9-4.7ZM29.2,16c0,1.7.4,3.3,1.1,4.6s1.8,2.4,3.1,3.2c1.3.8,2.8,1.2,4.5,1.2s3.2-.4,4.5-1.2c1.3-.8,2.4-1.9,3.1-3.2.8-1.4,1.2-2.9,1.2-4.6s-.4-3.3-1.2-4.6c-.8-1.4-1.8-2.4-3.1-3.2-1.3-.8-2.8-1.2-4.5-1.2s-3.2.4-4.5,1.2c-1.3.8-2.4,1.9-3.1,3.2-.8,1.3-1.1,2.9-1.1,4.6ZM6.7,16c0,1.8.4,3.3,1.2,4.7.8,1.4,1.9,2.4,3.2,3.2s2.7,1.1,4.2,1.1,2.1-.1,3-.4c.9-.3,1.8-.7,2.5-1.2.8-.5,1.4-1.1,1.9-1.8v3.7c-1,.8-2,1.5-3.2,1.9s-2.6.6-4.3.6-3.1-.3-4.5-.8c-1.4-.6-2.6-1.4-3.7-2.5-1.1-1.1-1.9-2.4-2.5-3.8-.6-1.4-.9-3-.9-4.7s.3-3.3.9-4.7c.6-1.4,1.4-2.7,2.5-3.7s2.3-1.9,3.7-2.4c1.4-.6,2.9-.9,4.5-.9s3.1.2,4.3.6c1.1.4,2.2,1,3.1,1.9v3.7c-.5-.7-1.2-1.3-1.9-1.8-.8-.5-1.6-.9-2.5-1.2-.9-.3-1.9-.4-3-.4s-2.9.4-4.2,1.1c-1.3.8-2.4,1.8-3.2,3.2-.8,1.3-1.2,2.9-1.2,4.7Z"/>
      <g class="cls-5">
        <g class="cls-6">
          <path class="cls-2" d="M148.8,4.2h0v.6h0v-.6ZM149.1,27.4V4.5h-.6v23h.6ZM160.6,27.1h-11.8v.6h11.8v-.6ZM160.4,24.8v2.6h.6v-2.6h-.6ZM151.6,25.1h9.1v-.6h-9.1v.6ZM151.3,4.5v20.3h.6V4.5h-.6ZM148.8,4.8h2.8v-.6h-2.8v.6ZM139.5,18.8l-3.9-9.2-.5.2,3.9,9.2.5-.2ZM139.7,19.5l-.3-.7-.5.2.3.7.5-.2ZM143.1,27.3l-3.4-7.9-.5.2,3.4,7.9.5-.2ZM146,27.1h-3.1v.6h3.1v-.6ZM135,3.5l10.7,24.1.5-.2-10.7-24.1-.5.2ZM124.8,27.6l10.7-24.1-.5-.2-10.7,24.1.5.2ZM127.7,27.1h-3.1v.6h3.1v-.6ZM130.9,19.3l-3.4,8.1.5.2,3.4-8.1-.5-.2ZM131.1,18.7l-.3.6.5.2.3-.6-.5-.2ZM135,9.6l-3.9,9.1.5.2,3.9-9.1-.5-.2ZM141.5,20.3h-12.2v.6h12.2v-.6ZM140.2,18l1,2.6.5-.2-1-2.6-.5.2ZM130.3,18.2h10.2v-.6h-10.2v.6ZM129.5,20.7l1-2.6-.5-.2-1,2.6.5.2ZM111.1,3.4l6.9,18,.5-.2-6.9-18-.5.2ZM104.9,21.5l6.7-18-.5-.2-6.7,18,.5.2ZM98.3,4.6l6.1,16.9.5-.2-6.1-16.9-.5.2ZM95.4,4.8h3.1v-.6h-3.1v.6ZM104.7,28.5l-9.1-24.1-.5.2,9.1,24.1.5-.2ZM111.1,10.6l-6.9,17.8.5.2,6.9-17.8-.5-.2ZM118.6,28.5l-6.9-17.8-.5.2,6.9,17.8.5-.2ZM127.1,4.4l-9.1,24.1.5.2,9.1-24.1-.5-.2ZM124.2,4.8h3.1v-.6h-3.1v.6ZM118.5,21.5l6-16.9-.5-.2-6,16.9.5.2ZM91.6,27.2l-9.9-9.8-.4.4,9.9,9.8.4-.4ZM95.1,27.1h-3.6v.6h3.6v-.6ZM85,17.8l9.9,9.8.4-.4-9.9-9.8-.4.4ZM81.6,17.9h3.6v-.6h-3.6v.6ZM71.5,20.5c-.5-1.4-.8-2.9-.8-4.6h-.6c0,1.7.3,3.3.9,4.8l.5-.2ZM73.9,24.2c-1-1.1-1.8-2.3-2.4-3.7l-.5.2c.6,1.5,1.4,2.7,2.5,3.9l.4-.4ZM77.5,26.6c-1.4-.6-2.6-1.4-3.6-2.4l-.4.4c1.1,1.1,2.3,1.9,3.8,2.6l.2-.5ZM82.1,27.5c-1.6,0-3.1-.3-4.6-.9l-.2.5c1.5.6,3.1.9,4.8.9v-.6ZM86.6,26.6c-1.4.6-2.9.9-4.5.9v.6c1.7,0,3.3-.3,4.8-.9l-.2-.5ZM90.2,24.2c-1,1-2.2,1.8-3.6,2.4l.2.5c1.4-.6,2.7-1.5,3.8-2.6l-.4-.4ZM92.6,20.5c-.6,1.4-1.4,2.6-2.4,3.7l.4.4c1.1-1.1,1.9-2.4,2.5-3.9l-.5-.2ZM93.5,16c0,1.6-.3,3.1-.9,4.6l.5.2c.6-1.5.9-3.1.9-4.8,0,0-.6,0-.6,0ZM92.6,11.4c.6,1.4.8,2.9.8,4.6h.6c0-1.7-.3-3.3-.9-4.8l-.5.2ZM90.2,7.8c1,1,1.8,2.2,2.4,3.6l.5-.2c-.6-1.5-1.4-2.8-2.5-3.8l-.4.4ZM86.6,5.4c1.4.6,2.6,1.4,3.6,2.4l.4-.4c-1.1-1.1-2.4-2-3.8-2.6l-.2.5ZM82.1,4.4c1.7,0,3.2.3,4.5.9l.2-.5c-1.5-.7-3-1-4.8-1,0,0,0,.6,0,.6ZM77.5,5.4c1.4-.6,2.9-.9,4.5-.9v-.6c-1.7,0-3.3.3-4.8,1l.2.5ZM73.9,7.8c1-1.1,2.2-1.8,3.6-2.4l-.2-.5c-1.4.6-2.7,1.4-3.8,2.6l.4.4ZM71.5,11.4c.6-1.4,1.4-2.6,2.4-3.6l-.4-.4c-1.1,1.1-1.9,2.3-2.5,3.8l.5.2ZM70.7,16c0-1.6.3-3.2.8-4.6l-.5-.2c-.6,1.4-.9,3.1-.9,4.8h.6ZM74.2,11.2c-.8,1.4-1.2,3-1.2,4.8h.6c0-1.7.4-3.2,1.1-4.5l-.5-.3ZM77.4,7.9c-1.3.8-2.4,1.9-3.2,3.3l.5.3c.8-1.3,1.8-2.4,3-3.1l-.3-.5ZM82.1,6.7c-1.7,0-3.3.4-4.6,1.2l.3.5c1.2-.8,2.7-1.1,4.3-1.1v-.6ZM86.7,7.9c-1.3-.8-2.9-1.2-4.6-1.2v.6c1.7,0,3.1.4,4.3,1.1l.3-.5ZM89.9,11.2c-.8-1.4-1.8-2.5-3.2-3.3l-.3.5c1.2.8,2.2,1.8,3,3.1l.5-.3ZM91.1,16c0-1.8-.4-3.4-1.2-4.8l-.5.3c.7,1.3,1.1,2.8,1.1,4.5,0,0,.6,0,.6,0ZM89.9,20.8c.8-1.4,1.2-3,1.2-4.8h-.6c0,1.7-.4,3.2-1.1,4.5l.5.3ZM86.7,24.1c1.4-.8,2.4-1.9,3.2-3.3l-.5-.3c-.7,1.3-1.7,2.4-3,3.1l.3.5ZM82.1,25.3c1.7,0,3.3-.4,4.6-1.2l-.3-.5c-1.2.8-2.7,1.1-4.3,1.1v.6ZM77.4,24.1c1.4.8,2.9,1.2,4.6,1.2v-.6c-1.6,0-3-.4-4.3-1.1l-.3.5ZM74.2,20.8c.8,1.4,1.9,2.5,3.2,3.3l.3-.5c-1.3-.8-2.3-1.8-3-3.1l-.5.3ZM73,16c0,1.8.4,3.4,1.2,4.8l.5-.3c-.7-1.3-1.1-2.8-1.1-4.5h-.6ZM53.9,27.4V4.5h-.6v23h.6ZM56.4,27.1h-2.8v.6h2.8v-.6ZM56.1,4.5v23h.6V4.5h-.6ZM53.6,4.8h2.8v-.6h-2.8v.6ZM66.1,16h-11v.6h11v-.6ZM65.8,13.7v2.6h.6v-2.6s-.6,0-.6,0ZM55.1,13.9h11v-.6h-11v.6ZM55.4,16.3v-2.6h-.6v2.6h.6ZM66.8,6.8h-11.6v.6h11.6v-.6ZM66.5,4.5v2.6h.6v-2.6h-.6ZM55.1,4.8h11.6v-.6h-11.6v.6ZM55.4,7.1v-2.6h-.6v2.6s.6,0,.6,0ZM66.8,27.1h-11.6v.6h11.6v-.6ZM66.5,24.8v2.6h.6v-2.6h-.6ZM55.1,25.1h11.6v-.6h-11.6v.6ZM55.4,27.4v-2.6h-.6v2.6s.6,0,.6,0ZM27.4,20.5c-.6-1.4-.8-2.9-.8-4.6h-.6c0,1.7.3,3.3.9,4.8l.5-.2ZM29.8,24.2c-1-1.1-1.8-2.3-2.4-3.7l-.5.2c.6,1.5,1.5,2.7,2.5,3.9l.4-.4ZM33.4,26.6c-1.4-.6-2.6-1.4-3.6-2.4l-.4.4c1.1,1.1,2.4,1.9,3.8,2.6l.2-.5ZM38,27.5c-1.6,0-3.1-.3-4.5-.9l-.2.5c1.5.6,3.1.9,4.8.9,0,0,0-.6,0-.6ZM42.5,26.6c-1.4.6-2.9.9-4.5.9v.6c1.7,0,3.3-.3,4.8-.9l-.2-.5ZM46.1,24.2c-1,1-2.2,1.8-3.6,2.4l.2.5c1.5-.6,2.7-1.5,3.8-2.6l-.4-.4ZM48.5,20.5c-.6,1.4-1.4,2.6-2.4,3.7l.4.4c1.1-1.1,1.9-2.4,2.5-3.9l-.5-.2ZM49.3,16c0,1.6-.3,3.1-.9,4.6l.5.2c.6-1.5.9-3.1.9-4.8,0,0-.6,0-.6,0ZM48.5,11.4c.6,1.4.8,2.9.8,4.6h.6c0-1.7-.3-3.3-.9-4.8l-.5.2ZM46.1,7.8c1,1,1.8,2.2,2.4,3.6l.5-.2c-.6-1.5-1.4-2.8-2.5-3.8l-.4.4ZM42.5,5.4c1.4.6,2.6,1.4,3.6,2.4l.4-.4c-1.1-1.1-2.4-2-3.8-2.6l-.2.5ZM38,4.4c1.7,0,3.2.3,4.5.9l.2-.5c-1.5-.7-3-1-4.8-1v.6ZM33.4,5.4c1.4-.6,2.9-.9,4.5-.9v-.6c-1.7,0-3.3.3-4.8,1l.2.5ZM29.8,7.8c1-1.1,2.2-1.8,3.6-2.4l-.2-.5c-1.5.6-2.7,1.4-3.8,2.6l.4.4ZM27.4,11.4c.6-1.4,1.4-2.6,2.4-3.6l-.4-.4c-1.1,1.1-1.9,2.3-2.5,3.8l.5.2ZM26.5,16c0-1.6.3-3.2.8-4.6l-.5-.2c-.6,1.4-.9,3.1-.9,4.8h.6ZM30.1,11.2c-.8,1.4-1.1,3-1.1,4.8h.6c0-1.7.4-3.2,1.1-4.5l-.5-.3ZM33.3,7.9c-1.4.8-2.5,1.9-3.2,3.3l.5.3c.7-1.3,1.8-2.4,3-3.1l-.3-.5ZM38,6.7c-1.7,0-3.3.4-4.6,1.2l.3.5c1.2-.8,2.7-1.1,4.3-1.1v-.6ZM42.6,7.9c-1.3-.8-2.9-1.2-4.6-1.2v.6c1.7,0,3.1.4,4.3,1.1l.3-.5ZM45.8,11.2c-.8-1.4-1.8-2.5-3.2-3.3l-.3.5c1.2.8,2.2,1.8,3,3.1l.5-.3ZM46.9,16c0-1.8-.4-3.4-1.2-4.8l-.5.3c.7,1.3,1.1,2.8,1.1,4.5,0,0,.6,0,.6,0ZM45.8,20.8c.8-1.4,1.2-3,1.2-4.8h-.6c0,1.7-.4,3.2-1.1,4.5l.5.3ZM42.6,24.1c1.4-.8,2.4-1.9,3.2-3.3l-.5-.3c-.7,1.3-1.7,2.4-3,3.1l.3.5ZM38,25.3c1.7,0,3.3-.4,4.6-1.2l-.3-.5c-1.2.8-2.7,1.1-4.3,1.1v.6ZM33.3,24.1c1.4.8,2.9,1.2,4.6,1.2v-.6c-1.6,0-3-.4-4.3-1.1l-.3.5ZM30.1,20.8c.8,1.4,1.9,2.5,3.3,3.3l.3-.5c-1.3-.8-2.3-1.8-3-3.1l-.5.3ZM28.9,16c0,1.8.4,3.4,1.1,4.8l.5-.3c-.7-1.3-1.1-2.8-1.1-4.5h-.6ZM7.6,11.1c-.8,1.4-1.2,3-1.2,4.8h.6c0-1.8.4-3.3,1.1-4.6l-.5-.3ZM10.9,7.8c-1.4.8-2.4,1.9-3.3,3.3l.5.3c.8-1.3,1.8-2.4,3.1-3.1l-.3-.5ZM15.2,6.7c-1.6,0-3,.4-4.4,1.2l.3.5c1.3-.7,2.6-1.1,4.1-1.1v-.6h0ZM18.3,7.1c-.9-.3-2-.4-3.1-.4v.6c1.1,0,2,.2,2.9.4l.2-.6ZM20.9,8.4c-.8-.5-1.6-1-2.6-1.2l-.2.6c.9.3,1.7.7,2.4,1.2l.3-.5ZM22.9,10.2c-.5-.7-1.2-1.3-2-1.8l-.3.5c.7.5,1.4,1.1,1.8,1.7l.5-.3ZM22.3,6.7v3.7h.6v-3.7h-.6ZM19.4,5.1c1.1.4,2.1,1,3,1.8l.4-.4c-1-.9-2.1-1.5-3.2-1.9l-.2.5ZM15.2,4.5c1.7,0,3,.2,4.2.6l.2-.5c-1.2-.4-2.6-.7-4.4-.7v.6ZM10.8,5.3c1.4-.6,2.8-.8,4.4-.8v-.6c-1.6,0-3.1.3-4.6.9l.2.5ZM7.3,7.7c1-1,2.2-1.8,3.6-2.4l-.2-.5c-1.4.5-2.7,1.4-3.8,2.5l.4.4ZM4.9,11.3c.6-1.4,1.4-2.6,2.4-3.6l-.4-.4c-1.1,1.1-2,2.3-2.5,3.8l.5.2ZM4,15.9c0-1.7.3-3.2.9-4.6l-.5-.2c-.6,1.5-.9,3.1-.9,4.8h.6ZM4.8,20.6c-.6-1.4-.8-2.9-.8-4.6h-.6c0,1.8.3,3.3.9,4.8l.5-.2ZM7.3,24.3c-1-1.1-1.8-2.3-2.4-3.7l-.5.2c.6,1.5,1.4,2.8,2.5,3.9l.4-.4ZM10.8,26.7c-1.4-.6-2.5-1.4-3.6-2.4l-.4.4c1.1,1.1,2.3,1.9,3.7,2.5l.2-.5ZM15.2,27.5c-1.6,0-3-.3-4.4-.8l-.2.5c1.4.6,3,.9,4.6.9v-.6ZM19.4,26.9c-1.1.4-2.5.6-4.2.6v.6c1.7,0,3.2-.2,4.4-.6l-.2-.5ZM22.5,25.1c-.9.8-2,1.4-3.1,1.8l.2.5c1.2-.4,2.3-1.1,3.3-2l-.4-.4ZM22.4,21.6v3.7h.6v-3.7h-.6ZM20.9,23.6c.8-.5,1.4-1.1,2-1.9l-.5-.3c-.5.7-1.1,1.2-1.8,1.7l.3.5ZM18.3,24.9c1-.3,1.8-.7,2.6-1.2l-.3-.5c-.7.5-1.5.9-2.4,1.1l.2.5ZM15.3,25.3c1.1,0,2.1-.1,3.1-.4l-.2-.5c-.9.3-1.9.4-2.9.4v.6ZM10.9,24.1c1.4.8,2.8,1.2,4.4,1.2v-.6c-1.5,0-2.8-.4-4.1-1.1l-.3.5ZM7.6,20.8c.8,1.4,1.9,2.5,3.3,3.3l.3-.5c-1.3-.8-2.3-1.8-3.1-3.1l-.5.3ZM6.4,16c0,1.8.4,3.4,1.2,4.8l.5-.3c-.8-1.3-1.1-2.8-1.1-4.6,0,0-.6,0-.6,0ZM148.8,4.5h.3v-.3h-.3v.3ZM148.8,27.4h-.3v.3h.3v-.3ZM160.6,27.4v.3h.3v-.3h-.3ZM160.6,24.8h.3v-.3h-.3v.3ZM151.6,24.8h-.3v.3h.3v-.3ZM151.6,4.5h.3v-.3h-.3v.3ZM139.2,18.9h.3c0-.1-.3,0-.3,0ZM139.5,19.6h-.3c0,.1.3,0,.3,0ZM142.8,27.4h-.3c0,.1,0,.3,0,.3h.2v-.3h0ZM146,27.4v.3h.4l-.2-.4h-.3ZM135.3,3.3h.3c0-.1-.3-.7-.3-.7l-.3.6h.3ZM124.6,27.4h-.3c0-.1-.2.3-.2.3h.4v-.3ZM127.7,27.4v.3h.2v-.2c0,0-.2-.1-.2-.1ZM131.1,19.4h-.3c0-.1.3,0,.3,0ZM131.4,18.8h.3c0,.1-.3,0-.3,0ZM135.3,9.7h.3c0-.1-.3-.7-.3-.7l-.3.6h.3ZM141.5,20.5v.3h.4v-.4c-.1,0-.4,0-.4,0ZM140.5,17.9h.3c0-.1,0-.3,0-.3h-.2v.3ZM130.3,17.9v-.3h-.2v.2c0,0,.2.1.2.1ZM129.3,20.5h-.3c0-.1-.1.3-.1.3h.4v-.3ZM111.4,3.3h.3c0,0-.3-.8-.3-.8l-.3.7h.3ZM104.7,21.4h-.3c0,.1.3.8.3.8l.3-.7h-.3ZM98.5,4.5h.3c0,0,0-.3,0-.3h-.2v.3ZM95.4,4.5v-.3h-.4l.2.4h.3ZM104.4,28.6h-.3c0,.1.3.8.3.8l.3-.7h-.3ZM111.4,10.8h.3c0-.1-.3-.8-.3-.8l-.3.7h.3ZM118.3,28.6h-.3c0,.1.3.8.3.8l.3-.7h-.3ZM127.4,4.5h.3c0,0,.2-.3.2-.3h-.4v.3ZM124.2,4.5v-.3h-.2v.2c0,0,.2,0,.2,0ZM118.2,21.4h-.3c0,.1.3.8.3.8l.3-.7h-.3ZM91.4,27.4l-.2.2h0c0,0,.1,0,.1,0,0,0,0-.3,0-.3ZM95.1,27.4v.3h.7l-.5-.5-.2.2ZM85.2,17.6l.2-.2h0c0,0-.1,0-.1,0,0,0,0,.3,0,.3ZM81.6,17.6v-.3h-.7l.5.5.2-.2ZM71.2,20.6h-.3c0,.1.3,0,.3,0ZM73.7,24.4l-.2.2h0l.2-.2ZM77.4,26.9v.3h-.1v-.3ZM86.7,26.9v.3h.1v-.3ZM92.9,11.3h-.3c0,.1.3,0,.3,0ZM90.4,7.6l-.2.2h0l.2-.2ZM86.7,5.1v.3h-.1v-.3ZM73.7,7.6l.2.2h0l-.2-.2ZM71.2,11.3h-.3c0-.1.3,0,.3,0ZM74.4,11.4h-.2c0-.1.2,0,.2,0ZM89.6,20.6h-.2c0-.1.2,0,.2,0ZM86.5,23.8l-.2-.2h0l.2.2ZM53.6,27.4h-.3v.3h.3v-.3ZM56.4,27.4v.3h.3v-.3h-.3ZM56.4,4.5h.3v-.3h-.3v.3ZM53.6,4.5v-.3h-.3v.3h.3ZM66.1,16.3v.3h.3v-.3h-.3ZM66.1,13.7h.3v-.3h-.3v.3ZM55.1,13.7v-.3h-.3v.3h.3ZM55.1,16.3h-.3v.3h.3v-.3ZM66.8,7.1v.3h.3v-.3h-.3ZM66.8,4.5h.3v-.3h-.3v.3ZM55.1,4.5v-.3h-.3v.3h.3ZM55.1,7.1h-.3v.3h.3v-.3ZM66.8,27.4v.3h.3v-.3h-.3ZM66.8,24.8h.3v-.3h-.3v.3ZM55.1,24.8v-.3h-.3v.3h.3ZM55.1,27.4h-.3v.3h.3v-.3ZM27.1,20.6h-.3c0,.1.3,0,.3,0ZM29.6,24.4l-.2.2h0l.2-.2ZM33.3,26.9v.3h-.1v-.3ZM42.6,26.9v.3h.1v-.3ZM48.8,11.3h-.3c0,.1.3,0,.3,0ZM46.3,7.6l-.2.2h0l.2-.2ZM42.6,5.1v.3h-.1v-.3ZM29.6,7.6l.2.2h0l-.2-.2ZM27.1,11.3h-.3c0-.1.3,0,.3,0ZM33.5,8.1l.2.2h0l-.2-.2ZM45.5,20.6h-.2c0-.1.2,0,.2,0ZM42.4,23.8l-.2-.2h0l.2.2ZM7.8,11.3h-.2c0-.1.2,0,.2,0ZM18.2,7.4v.3h0v-.3ZM20.7,8.6l.2-.2h0l-.2.2ZM22.6,10.4l-.2.2.5.7v-.9h-.3ZM22.6,6.7h.3c0-.1-.1-.2-.1-.2l-.2.2ZM19.5,4.8v.3h-.1v-.3ZM10.7,5.1v.3h.1v-.3ZM7.1,24.5l-.2.2h0l.2-.2ZM10.7,27v.3h-.1v-.3ZM22.7,25.3l.2.2h.1v-.2h-.3ZM22.7,21.6h.3v-.9l-.5.7.2.2ZM20.8,23.4v.2h.1v-.2ZM18.2,24.6v-.3h0v.3ZM7.8,20.7h-.2c0,.1.2,0,.2,0Z"/>
        </g>
      </g>
      <path class="cls-3" d="M20.7,23.4c-.8.5-1.6.9-2.5,1.2-.9.3-1.9.4-3,.4s-2.9-.4-4.2-1.1c-1.3-.8-2.3-1.8-3.2-3.2-.6-1.1-1-2.3-1.1-3.6-.4,0-.7-.2-1.1-.2-.7-.1-1.3.1-1.7.7,0,0,0,.1-.2.1.1,1,.4,2.1.8,3,.6,1.4,1.4,2.7,2.5,3.8,1.1,1,2.3,1.9,3.7,2.5,1.4.6,2.9.8,4.5.8s3.1-.2,4.3-.6c1.1-.4,2.2-1,3.2-1.9v-3.6c-.6.7-1.2,1.3-1.9,1.8Z"/>
      <path class="cls-3" d="M56.4,17.4c-.5-.2-1-.4-1.6,0-.2,0-.5.1-.8,0-.2,0-.3,0-.4,0v10h13.2v-2.6h-10.4v-7.5s0,0,0,0Z"/>
      <path class="cls-3" d="M151.6,24.8v-9.1c-.5-.1-1.1-.1-1.6,0-.4,0-.8.1-1.2.3v11.5h11.8v-2.6h-9Z"/>
      <path class="cls-3" d="M92.9,20.6c.5-1.3.8-2.6.9-4-.8-.5-2,.3-3,.4-.1,1.3-.5,2.5-1.1,3.6-.2.3-.4.6-.6.9l-3.9-3.9h-3.6l5.7,5.7c-.2.2-.5.3-.7.5-1.3.8-2.8,1.2-4.5,1.2s-3.2-.4-4.5-1.2c-1.3-.8-2.4-1.9-3.1-3.2-.6-1.1-1-2.4-1.1-3.8-1-.1-2-.1-3,.1,0,1.3.4,2.6.8,3.7.6,1.4,1.4,2.7,2.5,3.8,1.1,1,2.3,1.9,3.7,2.5,1.4.6,3,.9,4.7.9s3.2-.3,4.7-.9c1-.4,1.8-.9,2.6-1.5l2.1,2.1h3.6l-3.9-3.9c.7-.8,1.2-1.8,1.7-2.9Z"/>
      <path class="cls-3" d="M106.8,15.7l-2.1,5.6-2.2-6.1c-1,0-2.1.4-2.6,1.1l4.6,12.2,4.9-12.5c-.9,0-1.7,0-2.6-.3Z"/>
      <path class="cls-3" d="M122.1,16.8c-.8,0-1.5,0-2.2,0l-1.7,4.7-2.2-5.7c-.9-.2-1.8-.1-2.8,0l5,12.9,4.5-11.9c-.3,0-.5,0-.7,0Z"/>
      <path class="cls-3" d="M48.9,16.9c-.7-.5-1.5-.5-2.3-.8,0,1.7-.4,3.2-1.2,4.5-.8,1.4-1.8,2.4-3.1,3.2-1.3.8-2.8,1.2-4.5,1.2s-3.2-.4-4.5-1.2c-1.3-.8-2.4-1.9-3.1-3.2-.5-.8-.8-1.7-.9-2.7-.5,0-1,0-1.5-.4-.5,0-1.1.1-1.6.2.1,1,.4,2,.7,2.9.6,1.4,1.4,2.7,2.5,3.8s2.3,1.9,3.7,2.5c1.4.6,3,.9,4.7.9s3.2-.3,4.7-.9c1.4-.6,2.7-1.4,3.7-2.5,1.1-1.1,1.9-2.3,2.5-3.8.5-1.1.7-2.3.8-3.5-.3,0-.5,0-.7-.2Z"/>
      <path class="cls-3" d="M127.2,15.9h0c-.3.8-.6,1.6-.8,2.3h0c0,.1,0,.1,0,.1-.1.5-.2.9-.2,1.4,0,5.1,4.6,9.1,9.9,9.1s9.9-3.9,9.9-9.1,0,0,0,0c0-.5,0-1-.2-1.5h0,0c-.2-.9-.5-1.6-.9-2.4h0M142.1,15.8h-12.1"/>
      <path class="cls-4" d="M142.1,15.8"/>
      <path class="cls-7" d="M136,26.4c-4.3,0-7.5-3.1-7.5-6.6s.1-.8.3-1.4h14.4c.2.5.3,1,.3,1.4h0c0,3.6-3.2,6.6-7.5,6.6Z"/>
      <path class="cls-2" d="M132.6,11.7c1.1-1.5,2.1-2.9,2.9-3.9.1-.2.3-.3.4-.5.1.2.3.3.4.5.8,1,1.9,2.4,2.9,3.9,1,1.4,1.9,2.8,2.7,4.2h2.8c-.1-.3-.2-.5-.4-.8-.9-1.6-2-3.4-3.1-4.9-1.1-1.6-2.2-3-3-4-.4-.5-.8-.9-1-1.2-.1-.2-.2-.3-.3-.3s0,0,0,0c0,0,0,0,0,0h0s0,0-.9.8l.9-.8c-.2-.3-.6-.4-.9-.4s-.7.2-.9.4l.5.5c-.5-.4-.5-.5-.5-.5h0s0,0,0,0c0,0,0,0,0,0,0,0-.2.2-.3.3-.2.3-.6.7-1,1.2-.8,1-1.9,2.4-3,4-1.1,1.6-2.2,3.3-3.1,4.9-.2.3-.3.6-.4.8h0,2.8c.8-1.4,1.7-2.9,2.7-4.3Z"/>
    </g>
  </g>
</svg>